<?xml version="1.0" encoding="UTF-8" standalone="no"?>
<!-- Created with Inkscape (http://www.inkscape.org/) -->

<svg
   xmlns:dc="http://purl.org/dc/elements/1.1/"
   xmlns:cc="http://creativecommons.org/ns#"
   xmlns:rdf="http://www.w3.org/1999/02/22-rdf-syntax-ns#"
   xmlns:svg="http://www.w3.org/2000/svg"
   xmlns="http://www.w3.org/2000/svg"
   xmlns:sodipodi="http://sodipodi.sourceforge.net/DTD/sodipodi-0.dtd"
   xmlns:inkscape="http://www.inkscape.org/namespaces/inkscape"
   width="1920"
   height="1920"
   id="svg2"
   version="1.1"
   inkscape:version="0.48.3.1 r9886"
   sodipodi:docname="B-C-icons-2016-09-07-f-crane-v2.svg">
  <title
     id="title3056">Wikidata Morse code logo tower crane construction</title>
  <defs
     id="defs4" />
  <sodipodi:namedview
     id="base"
     pagecolor="#ffffff"
     bordercolor="#666666"
     borderopacity="1.0"
     inkscape:pageopacity="0.0"
     inkscape:pageshadow="2"
     inkscape:zoom="0.37896504"
     inkscape:cx="268.24749"
     inkscape:cy="979.70835"
     inkscape:document-units="px"
     inkscape:current-layer="layer1"
     showgrid="true"
     inkscape:window-width="1871"
     inkscape:window-height="1176"
     inkscape:window-x="49"
     inkscape:window-y="24"
     inkscape:window-maximized="1"
     showguides="true"
     inkscape:guide-bbox="true"
     fit-margin-top="20"
     fit-margin-left="20"
     fit-margin-right="20"
     fit-margin-bottom="20" />
  <metadata
     id="metadata7">
    <rdf:RDF>
      <cc:Work
         rdf:about="">
        <dc:format>image/svg+xml</dc:format>
        <dc:type
           rdf:resource="http://purl.org/dc/dcmitype/StillImage" />
        <dc:title>Wikidata Morse code logo tower crane construction</dc:title>
        <dc:rights>
          <cc:Agent>
            <dc:title>CC-BY-SA-3.0</dc:title>
          </cc:Agent>
        </dc:rights>
        <cc:license
           rdf:resource="http://creativecommons.org/licenses/by-sa/3.0/" />
        <dc:date>2016-09-08</dc:date>
        <dc:creator>
          <cc:Agent>
            <dc:title>Thiemo Mättig</dc:title>
          </cc:Agent>
        </dc:creator>
      </cc:Work>
      <cc:License
         rdf:about="http://creativecommons.org/licenses/by-sa/3.0/">
        <cc:permits
           rdf:resource="http://creativecommons.org/ns#Reproduction" />
        <cc:permits
           rdf:resource="http://creativecommons.org/ns#Distribution" />
        <cc:requires
           rdf:resource="http://creativecommons.org/ns#Notice" />
        <cc:requires
           rdf:resource="http://creativecommons.org/ns#Attribution" />
        <cc:permits
           rdf:resource="http://creativecommons.org/ns#DerivativeWorks" />
        <cc:requires
           rdf:resource="http://creativecommons.org/ns#ShareAlike" />
      </cc:License>
    </rdf:RDF>
  </metadata>
  <g
     inkscape:label="Layer 1"
     inkscape:groupmode="layer"
     id="layer1"
     transform="translate(-64.003373,1024.5581)">
    <path
       style="fill:none;stroke:#000000;stroke-width:13.71720505;stroke-linecap:round;stroke-linejoin:round;stroke-miterlimit:4;stroke-opacity:1;stroke-dasharray:none"
       d="m 744.31206,-525.4826 209.24696,-173.97714 457.97348,164.30633 0,386.93182"
       id="path3976"
       inkscape:connector-curvature="0" />
    <path
       style="font-size:medium;font-style:normal;font-variant:normal;font-weight:normal;font-stretch:normal;text-indent:0;text-align:start;text-decoration:none;line-height:normal;letter-spacing:normal;word-spacing:normal;text-transform:none;direction:ltr;block-progression:tb;writing-mode:lr-tb;text-anchor:start;baseline-shift:baseline;color:#000000;fill:#000000;fill-opacity:1;stroke:none;stroke-width:11;marker:none;visibility:visible;display:inline;overflow:visible;enable-background:accumulate;font-family:Sans;-inkscape-font-specification:Sans"
       d="m 953.35701,-732.27541 c -6.11568,0.069 -11.60929,5.72067 -11.50526,11.83589 l -13.51072,206.02561 50.29642,0 -13.51071,-206.02561 c 0.10562,-6.20333 -5.5659,-11.90667 -11.76973,-11.83589 z"
       id="path3978"
       inkscape:connector-curvature="0" />
    <path
       style="font-size:medium;font-style:normal;font-variant:normal;font-weight:normal;font-stretch:normal;text-indent:0;text-align:start;text-decoration:none;line-height:normal;letter-spacing:normal;word-spacing:normal;text-transform:none;direction:ltr;block-progression:tb;writing-mode:lr-tb;text-anchor:start;baseline-shift:baseline;color:#000000;fill:#000000;fill-opacity:1;stroke:none;stroke-width:11;marker:none;visibility:visible;display:inline;overflow:visible;enable-background:accumulate;font-family:Sans;-inkscape-font-specification:Sans"
       d="m 956.95032,-497.52305 766.93528,-12.5741 c 6.643,0.0937 12.7532,-5.93041 12.7532,-12.5741 0,-6.6437 -6.1102,-12.66803 -12.7532,-12.57411 l -766.93528,-12.5741 z"
       id="path3980"
       inkscape:connector-curvature="0" />
    <path
       inkscape:connector-curvature="0"
       id="path2998"
       style="fill:#000000;fill-opacity:1"
       d="m 1338.2435,173.05685 0,430.10298 153.8566,0 0,-430.10298 z m -719.1415,-345.8069 0,775.81774 153.85656,0 0,-775.81774 z m -204.03945,775.84856 153.85656,0 0,-860.15222 -153.85656,0 z m -103.69458,0 50.17242,0 0,-860.15222 -50.17242,0 z m 617.13758,-1125.31248 0,1125.34307 50.18284,0 0,-1125.34307 z m -103.705,1125.3738 50.17241,0 0,-573.470636 -50.17241,0 z m 828.22055,-286.7355 0,286.73532 50.1724,0 0,-286.73532 z m -103.7049,286.73532 50.1829,0 0,-573.470639 -50.1829,0 z m -314.7673,1.8e-4 53.5117,0 0,-860.15108 -53.5117,0 z m -204.0394,0 153.8775,0 0,-860.15108 -153.8775,0 z" />
    <path
       inkscape:connector-curvature="0"
       style="fill:#000000;fill-opacity:1"
       d="m 619.102,-547.76268 0,84.02452 153.85656,0 0,-84.02452 z"
       id="path3036" />
    <path
       inkscape:connector-curvature="0"
       style="fill:#000000;fill-opacity:1"
       d="m 1338.3009,-341.19281 0,286.775323 20.8615,0 0,-20.290033 39.5799,0 0,20.290033 32.8641,0 0,-20.290033 39.5799,0 0,20.290033 20.8616,0 0,-286.775323 -153.747,0 z"
       id="path4004" />
    <path
       style="fill:#000000;fill-opacity:1"
       d="m 956.14928,-547.76268 -189.1438,0 0,50.18285 189.1438,0 z"
       id="path4006"
       inkscape:connector-curvature="0" />
    <path
       d="m 1431.5397,148.2165 39.6064,0 0,39.60642 -39.6064,0 z m -72.3423,0 39.6064,0 0,39.60642 -39.6064,0 z"
       style="fill:#000000;fill-opacity:1;fill-rule:evenodd;stroke:none"
       id="path4010"
       inkscape:connector-curvature="0" />
  </g>
</svg>
